
<svg t="1709719545174" class="icon" viewBox="0 0 1024 1024" version="1.1" xmlns="http://www.w3.org/2000/svg" p-id="29312" width="200" height="200"><path d="M512.64 85.333333h-1.28c225.109333 0 394.197333 159.36 327.125333 377.386667-65.984 214.506667-296.597333 302.421333-325.866666 305.216a1.365333 1.365333 0 0 1-0.576 0.042667L511.36 768c-29.248-2.858667-259.861333-90.773333-325.845333-305.28C118.442667 244.693333 287.530667 85.333333 512.64 85.333333h-1.28 1.28z" fill="#FF9F00" p-id="29313"></path><path d="M512.64 767.936a1.365333 1.365333 0 0 1-0.597333 0.042667L511.36 768c-24.832-2.432-194.816-66.154667-285.952-216.618667C261.802667 577.941333 376.32 597.333333 512 597.333333c135.722667 0 250.304-19.413333 286.634667-45.973333-91.157333 150.464-261.162667 214.186667-286.016 216.576z" fill="#FF8500" p-id="29314"></path><path d="M512 85.333333h-0.64c183.466667 0 329.685333 105.856 341.248 263.04C841.002667 403.968 692.949333 448 512 448S182.997333 403.989333 171.392 348.373333c11.413333-155.264 154.24-260.437333 334.506667-262.997333L512 85.333333z" fill="#FFC229" p-id="29315"></path><path d="M511.786667 85.333333h-0.426667c91.818667 0 174.293333 26.517333 235.264 72.704C744.981333 188.672 640.554667 213.333333 512 213.333333c-129.6 0-234.666667-25.066667-234.666667-56l0.042667 0.704c59.456-45.056 139.413333-71.402667 228.544-72.661333L511.509333 85.333333h0.298667z" fill="#FFE500" p-id="29316"></path><path d="M512 768c-43.093333 0-249.301333-112.170667-307.008-326.613333C146.325333 223.36 315.584 85.333333 512.576 85.333333c196.416 0.618667 365.013333 138.453333 306.432 356.053334C761.301333 655.829333 555.114667 768 512 768z" fill="#FFE8A6" p-id="29317"></path><path d="M512 768c-33.6 0-166.293333-68.16-250.517333-199.786667C314.730667 585.728 407.04 597.333333 512 597.333333s197.290667-11.605333 250.538667-29.141333c-84.245333 131.626667-216.96 199.786667-250.538667 199.786667z" fill="#F2440A" p-id="29318"></path><path d="M512.576 85.333333c177.344 0.554667 331.989333 112.981333 317.248 294.976C780.010667 419.946667 656.490667 448 512 448c-144.512 0-268.032-28.053333-317.845333-67.690667C179.413333 197.909333 334.677333 85.333333 512.576 85.333333z" fill="#FFF8CA" p-id="29319"></path><path d="M512.405333 85.333333h0.426667-0.256c89.109333 0.277333 172.522667 28.8 231.552 80.234667C727.466667 192.597333 629.866667 213.333333 512 213.333333c-117.909333 0-215.488-20.757333-232.149333-47.786666 57.813333-50.389333 139.029333-78.805333 226.133333-80.170667z" fill="#FFFFFF" p-id="29320"></path><path d="M512.96 768h-0.490667c-22.293333-2.901333-238.378667-112.170667-288.469333-326.613333C173.056 223.36 342.464 85.333333 513.450667 85.333333c170.496 0.618667 337.386667 138.453333 286.549333 356.053334-50.090667 214.442667-264.234667 323.712-286.549333 326.549333a0.896 0.896 0 0 1-0.490667 0.042667z" fill="#FF9F00" p-id="29321"></path><path d="M513.450667 767.936l-0.213334 0.042667h-0.277333l-0.490667 0.021333c-17.109333-2.218667-148.309333-67.072-231.061333-194.005333C336.192 588.245333 419.157333 597.333333 512 597.333333c93.034667 0 176.149333-9.109333 230.912-23.402666-82.218667 126.954667-212.330667 191.829333-229.461333 194.005333z" fill="#FF8500" p-id="29322"></path><path d="M513.450667 85.333333c157.930667 0.576 312.746667 118.890667 294.336 309.248C748.8 426.517333 638.421333 448 512 448s-236.8-21.482667-295.786667-53.397333C198.016 203.797333 355.050667 85.333333 513.450667 85.333333z" fill="#FFC229" p-id="29323"></path><path d="M513.045333 85.333333h0.981334-0.576c82.325333 0.298667 163.776 32.576 220.309333 90.368C701.888 197.610667 614.634667 213.333333 512 213.333333c-102.08 0-188.949333-15.573333-221.226667-37.269333 55.893333-56.896 135.893333-89.173333 216.810667-90.666667z" fill="#FFE500" p-id="29324"></path><path d="M512 768h-0.362667c-16.512-2.901333-169.472-112.170667-206.570666-326.613333C267.349333 223.36 385.728 85.333333 512.362667 85.333333c126.272 0.618667 244.224 138.453333 206.570666 356.053334-37.12 214.442667-190.058667 323.712-206.570666 326.549333-0.106667 0.064-0.213333 0.064-0.362667 0.042667z" fill="#FFE8A6" p-id="29325"></path><path d="M512.362667 767.936c-0.106667 0.064-0.213333 0.064-0.362667 0.042667l-0.362667 0.021333c-12.224-2.133333-99.029333-62.464-158.442666-180.437333 45.973333 6.186667 100.437333 9.770667 158.805333 9.770666 58.368 0 112.832-3.584 158.826667-9.792-59.434667 117.994667-146.24 178.304-158.464 180.394667z" fill="#F2440A" p-id="29326"></path><path d="M512.362667 85.333333c123.178667 0.597333 238.442667 131.797333 209.066666 340.245334C663.616 439.637333 590.933333 448 512 448s-151.616-8.362667-209.429333-22.421333C273.130667 216.725333 388.821333 85.333333 512.362667 85.333333z" fill="#FFF8CA" p-id="29327"></path><path d="M512.362667 85.333333c67.477333 0.32 132.565333 39.850667 172.821333 109.781334C642.261333 206.293333 580.565333 213.333333 512 213.333333c-68.586667 0-130.304-7.04-173.205333-18.218666C379.157333 124.885333 444.586667 85.333333 512.362667 85.333333z" fill="#FFFFFF" p-id="29328"></path><path d="M513.066667 768h-0.32c-13.44-2.901333-151.850667-112.170667-182.08-326.613333C299.946667 223.36 410.197333 85.333333 513.344 85.333333c102.848 0.618667 210.666667 138.453333 179.989333 356.053334-30.229333 214.442667-166.528 323.712-179.989333 326.549333-0.085333 0.064-0.192 0.064-0.298667 0.042667z" fill="#FF9F00" p-id="29329"></path><path d="M513.344 767.936c-0.085333 0.064-0.192 0.064-0.298667 0.042667l-0.298666 0.021333c-9.877333-2.133333-87.125333-61.610667-139.456-177.962667 41.472 4.650667 88.661333 7.296 138.709333 7.296 50.218667 0 97.536-2.645333 139.093333-7.338666-51.733333 116.373333-127.850667 175.850667-137.749333 177.92z" fill="#FF8500" p-id="29330"></path><path d="M513.344 85.333333c101.290667 0.597333 207.36 134.272 181.290667 346.133334-52.8 10.453333-115.456 16.533333-182.634667 16.533333s-129.834667-6.058667-182.634667-16.533333C303.317333 219.2 411.776 85.333333 513.344 85.333333z" fill="#FFC229" p-id="29331"></path><path d="M513.152 85.333333h0.448-0.256c56.277333 0.341333 114.026667 41.749333 149.76 114.816C622.314667 208.384 569.6 213.333333 512 213.333333c-57.194667 0-109.632-4.885333-150.357333-13.013333 35.584-71.744 92.373333-113.002667 147.690666-114.922667z" fill="#FFE500" p-id="29332"></path><path d="M511.829333 768c-7.338667-2.901333-64.96-112.170667-81.450666-326.613333C413.610667 223.36 455.872 85.333333 512.170667 85.333333c56.106667 0.618667 98.176 138.453333 81.450666 356.053334-16.490667 214.442667-74.112 323.712-81.450666 326.549333-0.213333 0.064-0.277333 0.064-0.341334 0.064z" fill="#FFE8A6" p-id="29333"></path><path d="M512.170667 767.936c-0.213333 0.064-0.277333 0.064-0.341334 0.064-5.290667-2.090667-36.778667-59.562667-60.074666-171.968a1365.098667 1365.098667 0 0 0 120.490666 0c-23.296 112.384-54.784 169.856-60.074666 171.904z" fill="#F2440A" p-id="29334"></path><path d="M512.170667 85.333333c56.106667 0.618667 98.176 138.453333 81.450666 356.053334l-0.256 3.562666A1070.293333 1070.293333 0 0 1 512 448a1070.293333 1070.293333 0 0 1-81.365333-3.050667l-0.256-3.562666C413.610667 223.36 455.872 85.333333 512.170667 85.333333z" fill="#FFF8CA" p-id="29335"></path><path d="M512.170667 85.333333c32.106667 0.341333 59.626667 45.653333 74.154666 125.12A935.232 935.232 0 0 1 512 213.333333c-25.984 0-50.986667-1.002667-74.325333-2.858666C452.245333 130.688 479.914667 85.333333 512.170667 85.333333z" fill="#FFFFFF" p-id="29336"></path><path d="M512 768c-19.84 0-53.354667-246.762667-53.333333-405.333333 0.021333-158.570667 31.210667-277.333333 54.378666-277.333334 23.082667 0.618667 52.288 94.421333 52.288 277.333334S531.84 768 512 768z" fill="#FF9F00" p-id="29337"></path><path d="M512 768c-11.029333 0-26.282667-76.224-37.653333-171.178667a1375.914667 1375.914667 0 0 0 76.522666-0.021333C539.349333 694.293333 523.413333 768 512 768z" fill="#FF8500" p-id="29338"></path><path d="M513.045333 85.333333c23.082667 0.618667 52.288 94.421333 52.288 277.333334 0 27.456-0.746667 55.808-2.090666 84.16a1112 1112 0 0 1-102.058667 0A1552.661333 1552.661333 0 0 1 458.666667 362.666667c0.021333-158.570667 31.210667-277.333333 54.378666-277.333334z" fill="#FFC229" p-id="29339"></path><path d="M513.002667 85.333333h0.085333c15.509333 0.426667 33.856 43.136 44.16 126.933334a975.104 975.104 0 0 1-88.512 0.106666c10.794667-75.52 28.373333-124.330667 43.093333-126.933333z" fill="#FFE500" p-id="29340"></path><path d="M386.858667 842.602667h250.410666a4.266667 4.266667 0 0 1 3.84 6.144l-32.106666 65.92A42.666667 42.666667 0 0 1 570.666667 938.666667h-117.269334a42.666667 42.666667 0 0 1-38.378666-24.042667l-32-65.877333a4.266667 4.266667 0 0 1 3.84-6.144z" fill="#FF560C" p-id="29341"></path><path d="M618.090667 896l-9.088 18.666667A42.666667 42.666667 0 0 1 570.666667 938.666667h-117.269334a42.666667 42.666667 0 0 1-38.378666-24.042667L405.973333 896h212.138667z" fill="#FC280E" p-id="29342"></path><path d="M444.437333 810.666667h135.125334a42.666667 42.666667 0 0 1 17.642666 3.84l40.64 18.453333a10.666667 10.666667 0 0 1-4.416 20.373333H390.570667a10.666667 10.666667 0 0 1-4.416-20.373333l40.64-18.474667a42.666667 42.666667 0 0 1 17.642666-3.818666z" fill="#FFB468" p-id="29343"></path><path d="M579.562667 810.666667a42.666667 42.666667 0 0 1 17.642666 3.84l38.549334 17.493333H388.245333l38.549334-17.493333a42.666667 42.666667 0 0 1 17.642666-3.84h135.125334z" fill="#FF962A" p-id="29344"></path><path d="M447.616 820.053333h128.96l29.866667 11.946667h-188.693334z" fill="#EC0000" p-id="29345"></path><path d="M512 768m-21.333333 0a21.333333 21.333333 0 1 0 42.666666 0 21.333333 21.333333 0 1 0-42.666666 0Z" fill="#FF7325" p-id="29346"></path><path d="M533.333333 768a21.333333 21.333333 0 0 1-42.666666 0z" fill="#FFB468" p-id="29347"></path><path d="M397.738667 850.133333a10.666667 10.666667 0 0 1-9.877334-18.901333l119.04-62.165333a10.666667 10.666667 0 0 1 9.877334 0l119.274666 62.165333a10.666667 10.666667 0 0 1-9.856 18.922667l-114.346666-59.605334-114.133334 59.605334z" fill="#FFB468" p-id="29348"></path></svg>